PathFileType	4	(X/Y/Z)	Kaydara	
DataRate	CameraRate	NumFrames	NumMarkers	Units	OrigDataRate	OrigDataStartFrame	OrigNumFrames	
120.00	120.00	7	30	mm	120.00	1068	2847	
Frame#	Time	reference			Pelvis			Left_hip			Left_knee			Left_ankle			Left_foot			Left_foot_End			Right_hip			Right_knee			Right_ankle			Right_foot			Right_foot_End			Spine1			Spine2			Spine3			Neck			Head			Head_End			Left_collar			Left_shoulder			Left_elbow			Left_wrist			Left_palm			Left_palm_End			Right_collar			Right_shoulder			Right_elbow			Right_wrist			Right_palm			Right_palm_End			
		X1	Y1	Z1	X2	Y2	Z2	X3	Y3	Z3	X4	Y4	Z4	X5	Y5	Z5	X6	Y6	Z6	X7	Y7	Z7	X8	Y8	Z8	X9	Y9	Z9	X10	Y10	Z10	X11	Y11	Z11	X12	Y12	Z12	X13	Y13	Z13	X14	Y14	Z14	X15	Y15	Z15	X16	Y16	Z16	X17	Y17	Z17	X18	Y18	Z18	X19	Y19	Z19	X20	Y20	Z20	X21	Y21	Z21	X22	Y22	Z22	X23	Y23	Z23	X24	Y24	Z24	X25	Y25	Z25	X26	Y26	Z26	X27	Y27	Z27	X28	Y28	Z28	X29	Y29	Z29	X30	Y30	Z30	

1068	8.892	0.00000	0.00000	0.00000	589.24999	835.86998	-842.25365	505.70409	780.89099	-819.64410	648.92076	561.44004	-1107.11788	703.67193	269.50848	-797.89418	683.38414	187.39576	-912.17459	683.38414	187.39576	-912.17459	614.21131	746.17287	-784.42047	832.39885	512.51184	-1001.00255	872.98602	119.95332	-851.84909	938.51800	40.56790	-958.89353	938.51800	40.56790	-958.89353	624.04494	948.49095	-882.30987	661.93646	1072.49820	-929.72872	681.92415	1117.32658	-957.00176	756.65952	1287.53868	-1059.92376	778.55661	1367.76915	-1120.23021	778.55661	1367.76915	-1120.23021	646.44711	1225.65939	-1031.16219	532.94486	1275.99863	-1076.97731	418.46109	1046.10538	-1079.87905	351.77137	857.35821	-1255.21840	346.72522	782.31797	-1302.28270	346.72522	782.31797	-1302.28270	788.79169	1209.10654	-972.78388	908.12221	1221.80166	-946.57994	1103.13746	1086.96610	-834.15802	1151.02641	1167.04476	-1086.73604	1169.00450	1200.67006	-1167.97858	1169.00450	1200.67006	-1167.97858 
1069	8.900	0.00000	0.00000	0.00000	589.37000	835.91003	-842.23785	505.83625	780.90691	-819.64211	648.91907	561.38754	-1107.13031	703.71765	269.41263	-797.95594	683.34898	187.31173	-912.23044	683.34898	187.31173	-912.23044	614.34995	746.20948	-784.41807	832.35948	512.46860	-1001.09323	872.95013	119.92418	-851.90360	938.45230	40.52541	-958.95638	938.45230	40.52541	-958.95638	624.13971	948.54611	-882.27351	662.00408	1072.56867	-929.67404	681.98312	1117.40299	-956.94363	756.68896	1287.62811	-1059.86555	778.57219	1367.86258	-1120.17170	778.57219	1367.86258	-1120.17170	646.48738	1225.72912	-1031.10488	533.01979	1276.15247	-1076.91336	418.60251	1046.22664	-1079.85588	351.88863	857.45861	-1255.16358	346.83847	782.41456	-1302.22138	346.83847	782.41456	-1302.22138	788.83431	1209.20211	-972.72500	908.15216	1221.94972	-946.48884	1103.04504	1087.34898	-833.57443	1148.86897	1167.70838	-1086.44620	1166.00984	1201.25594	-1167.90155	1166.00984	1201.25594	-1167.90155 
1070	8.908	0.00000	0.00000	0.00000	589.43001	835.94002	-842.22214	505.90072	780.91779	-819.65643	649.16367	561.40213	-1107.05773	704.05414	269.44275	-797.88500	683.68497	187.33821	-912.15680	683.68497	187.33821	-912.15680	614.40978	746.24470	-784.39414	832.39888	512.41877	-1000.99807	873.02586	119.90737	-851.73147	938.54209	40.49655	-958.76671	938.54209	40.49655	-958.76671	624.18838	948.58426	-882.24465	662.04252	1072.61319	-929.63666	682.02302	1117.44849	-956.90359	756.73780	1287.66899	-1059.82666	778.63095	1367.89574	-1120.13948	778.63095	1367.89574	-1120.13948	646.53722	1225.74951	-1031.10626	533.08630	1276.13451	-1076.99813	418.71210	1046.18715	-1079.93335	352.10170	857.40163	-1255.26157	347.09038	782.35922	-1302.32613	347.09038	782.35922	-1302.32613	788.85956	1209.27016	-972.65297	908.15395	1222.07536	-946.33832	1102.93205	1087.76353	-832.88311	1146.62911	1168.52144	-1086.00428	1162.86581	1201.97084	-1167.68494	1162.86581	1201.97084	-1167.68494 
1071	8.917	0.00000	0.00000	0.00000	589.50001	835.97061	-842.20634	505.97364	780.93333	-819.66653	649.30594	561.33862	-1106.97286	704.26685	269.38286	-797.80922	683.88020	187.28918	-912.08571	683.88020	187.28918	-912.08571	614.47743	746.28252	-784.36613	832.36689	512.40014	-1001.00938	872.96050	119.88917	-851.73258	938.46552	40.47929	-958.77538	938.46552	40.47929	-958.77538	624.25032	948.61983	-882.22186	662.09859	1072.65074	-929.61338	682.08431	1117.48467	-956.87873	756.82305	1287.69386	-1059.80309	778.73804	1367.90551	-1120.12807	778.73804	1367.90551	-1120.12807	646.62163	1225.74160	-1031.15675	533.18015	1276.07981	-1077.12325	418.78755	1046.14183	-1080.07608	352.19748	857.34064	-1255.39514	347.19358	782.29556	-1302.45623	347.19358	782.29556	-1302.45623	788.89804	1209.34297	-972.56911	908.17552	1222.16168	-946.18446	1102.82027	1088.11719	-832.18554	1144.39003	1169.35086	-1085.51269	1159.59511	1202.62283	-1167.46392	1159.59511	1202.62283	-1167.46392 
1072	8.925	0.00000	0.00000	0.00000	589.55002	836.00113	-842.19002	506.03483	780.93990	-819.66729	649.40807	561.31085	-1106.92693	704.80400	269.37442	-797.82268	684.33423	187.30194	-912.09953	684.33423	187.30194	-912.09953	614.54172	746.31836	-784.34772	832.34416	512.38771	-1001.02636	872.95884	119.87614	-851.75686	938.45675	40.47108	-958.80757	938.45675	40.47108	-958.80757	624.27632	948.66118	-882.19586	662.10048	1072.70077	-929.58393	682.08252	1117.53539	-956.85083	756.81358	1287.73387	-1059.79849	778.73079	1367.93196	-1120.14069	778.73079	1367.93196	-1120.14069	646.61937	1225.75354	-1031.18512	533.19484	1276.08431	-1077.20156	418.78219	1046.15628	-1080.15271	352.20444	857.35022	-1255.47121	347.20352	782.30414	-1302.53102	347.20352	782.30414	-1302.53102	788.87218	1209.42520	-972.52058	908.13562	1222.26377	-946.08218	1102.66635	1088.56148	-831.48830	1142.08673	1170.43020	-1084.95456	1156.15306	1203.42467	-1167.22075	1156.15306	1203.42467	-1167.22075 
1073	8.933	0.00000	0.00000	0.00000	589.59999	836.02997	-842.17003	506.09384	780.94162	-819.68013	649.48262	561.25967	-1106.89156	705.06340	269.35568	-797.78985	684.58821	187.28089	-912.06407	684.58821	187.28089	-912.06407	614.59864	746.35268	-784.32223	832.31988	512.38929	-1001.04710	872.92350	119.87344	-851.78584	938.42149	40.47694	-958.84285	938.42149	40.47694	-958.84285	624.30560	948.70254	-882.15857	662.10943	1072.75299	-929.53441	682.08930	1117.58853	-956.80140	756.81898	1287.77199	-1059.77489	778.73911	1367.95734	-1120.13296	778.73911	1367.95734	-1120.13296	646.62802	1225.77842	-1031.17770	533.19711	1276.06319	-1077.22871	418.80475	1046.12495	-1080.16995	352.26737	857.30055	-1255.48402	347.27856	782.25071	-1302.53914	347.27856	782.25071	-1302.53914	788.86590	1209.49463	-972.46461	908.11798	1222.36315	-945.98957	1102.56474	1089.10800	-830.73426	1139.88574	1171.59026	-1084.31939	1152.72085	1204.18973	-1166.94358	1152.72085	1204.18973	-1166.94358 
1074	8.942	0.00000	0.00000	0.00000	589.64001	836.05003	-842.15553	506.14234	780.93714	-819.69429	649.64749	561.23608	-1106.83297	705.33732	269.33033	-797.75255	684.84054	187.26172	-912.02734	684.84054	187.26172	-912.02734	614.64504	746.38067	-784.29822	832.29284	512.38559	-1001.06265	872.88912	119.86651	-851.80791	938.40529	40.48259	-958.86313	938.40529	40.48259	-958.86313	624.32618	948.73254	-882.13296	662.11083	1072.79136	-929.50219	682.08901	1117.62824	-956.76821	756.81691	1287.80599	-1059.75242	778.74179	1367.98176	-1120.12149	778.74179	1367.98176	-1120.12149	646.63086	1225.78722	-1031.19095	533.19085	1276.00351	-1077.29422	418.81047	1046.05921	-1080.22717	352.30897	857.19252	-1255.50931	347.32980	782.13184	-1302.54814	347.32980	782.13184	-1302.54814	788.84555	1209.56204	-972.40550	908.08466	1222.45722	-945.88501	1102.39253	1089.61321	-829.92303	1137.78374	1172.65589	-1083.60191	1149.37203	1204.74882	-1166.60779	1149.37203	1204.74882	-1166.60779 
